<svg width="23" height="25" viewBox="0 0 18 20" fill="none" xmlns="http://www.w3.org/2000/svg">
<path d="M17.25 15.5V16.875H11.75C11.75 17.2546 11.6784 17.6126 11.5352 17.9492C11.3919 18.2786 11.195 18.5687 10.9443 18.8193C10.6937 19.07 10.4001 19.2669 10.0635 19.4102C9.73405 19.5534 9.37956 19.625 9 19.625C8.62044 19.625 8.26237 19.5534 7.92578 19.4102C7.59635 19.2669 7.30632 19.07 7.05566 18.8193C6.80501 18.5687 6.60807 18.2786 6.46484 17.9492C6.32161 17.6126 6.25 17.2546 6.25 16.875H0.75V15.5H2.125V7.25C2.125 6.61979 2.20736 6.01107 2.37207 5.42383C2.53678 4.83659 2.76595 4.28874 3.05957 3.78027C3.36035 3.27181 3.71842 2.8099 4.13379 2.39453C4.55632 1.97201 5.02181 1.61393 5.53027 1.32031C6.03874 1.01953 6.58659 0.786784 7.17383 0.62207C7.76107 0.457357 8.36979 0.375 9 0.375C9.63021 0.375 10.2389 0.457357 10.8262 0.62207C11.4134 0.786784 11.9613 1.01953 12.4697 1.32031C12.9782 1.61393 13.4401 1.97201 13.8555 2.39453C14.278 2.8099 14.6361 3.27181 14.9297 3.78027C15.2305 4.28874 15.4632 4.83659 15.6279 5.42383C15.7926 6.01107 15.875 6.61979 15.875 7.25V15.5H17.25ZM14.5 15.5V7.25C14.5 6.49089 14.3532 5.77832 14.0596 5.1123C13.7731 4.44629 13.3792 3.86621 12.8779 3.37207C12.3838 2.87077 11.8037 2.47689 11.1377 2.19043C10.4717 1.89681 9.75911 1.75 9 1.75C8.24089 1.75 7.52832 1.89681 6.8623 2.19043C6.19629 2.47689 5.61263 2.87077 5.11133 3.37207C4.61719 3.86621 4.22331 4.44629 3.92969 5.1123C3.64323 5.77832 3.5 6.49089 3.5 7.25V15.5H14.5ZM9 18.25C9.19336 18.25 9.3724 18.2142 9.53711 18.1426C9.70182 18.071 9.84505 17.9743 9.9668 17.8525C10.0957 17.7236 10.196 17.5768 10.2676 17.4121C10.3392 17.2474 10.375 17.0684 10.375 16.875H7.625C7.625 17.0684 7.66081 17.2474 7.73242 17.4121C7.80404 17.5768 7.90072 17.7236 8.02246 17.8525C8.15137 17.9743 8.29818 18.071 8.46289 18.1426C8.6276 18.2142 8.80664 18.25 9 18.25Z" fill="white"/>
</svg>
